<svg id="Layer_1" data-name="Layer 1" xmlns="http://www.w3.org/2000/svg" viewBox="0 0 396.85 150.21"><defs><style>.cls-1{fill:#fff;}.cls-2{fill:#ffd100;}.cls-3{fill:#e73932;}.cls-4{fill:#0698d6;}.cls-5{fill:#7db928;}</style></defs><title>partner</title><path class="cls-1" d="M398.4,74.48c0-.91-.16-1.82-.28-2.72s-.31-1.93-.43-2.89a13,13,0,0,0-1.86-5.3c-.76-1.21-1.56-2.39-2.36-3.57a1.69,1.69,0,0,0-.52-.57c-1.07-.61-2-1.48-3.06-2.06-.92-.48-1.86-.88-2.81-1.3a3.79,3.79,0,0,0-1.68-.35H385c-1.19,0-1.19-.13-1.28,1.11a6.12,6.12,0,0,1-.09,1c-.22,1.09-.49,2.16-.7,3.24-.43,2.17-.85,4.34-1.24,6.52-.44,2.49-.85,5-1.25,7.5a71.89,71.89,0,0,0-1,7.15,11.14,11.14,0,0,1-.15,1.16,38.15,38.15,0,0,0-.68,7,11.46,11.46,0,0,1-.06,1.17c-.16,1.62-.36,3.23-.51,4.85-.1,1.1-.13,2.21-.17,3.32,0,.78,0,1.56,0,2.7s0,2.64.07,4.13a8.81,8.81,0,0,0,.89,3.77c.21.4.35.84.56,1.24a2.91,2.91,0,0,1,.35,1.5,2.87,2.87,0,0,0,.07.58.63.63,0,0,0,.55.47c.84-.07,1.68-.11,2.51-.23a3.53,3.53,0,0,0,2.75-1.58c.34-.55.76-1.06,1.1-1.61a12.64,12.64,0,0,1,2.24-2.9,7.71,7.71,0,0,0,1.61-2.18c.61-1.15,1.08-2.36,1.62-3.54a6.17,6.17,0,0,1,.72-1.37,11.87,11.87,0,0,0,1.87-3.62,47.64,47.64,0,0,0,2.52-8.6c.15-1,.41-1.9.54-2.87.2-1.36.29-2.72.42-4.08A49.87,49.87,0,0,0,398.4,74.48Zm-4.69,3.09c-.65,4.05-1.29,8.1-2.2,12.09-.05.26-.15.5-.22.75a49.16,49.16,0,0,1-2.68,7.11c-.53,1.11-1,2.26-1.46,3.4a5.74,5.74,0,0,1-.3.72,15,15,0,0,1-2.8,3.45.19.19,0,0,1-.32-.09,5,5,0,0,1-.3-1.12,25.38,25.38,0,0,0-.39-3.48A12.28,12.28,0,0,1,383,99a8.42,8.42,0,0,0-.25-2.12,1.3,1.3,0,0,1,0-1,4,4,0,0,0,.18-1.74c0-1.1-.06-2.21-.08-3.31a8.21,8.21,0,0,0,.13-2.52c0-.45-.07-.9-.1-1.36a11.25,11.25,0,0,1,.05-2.72,3.44,3.44,0,0,1,.25-.93,10.89,10.89,0,0,0,1-4.15c.16-1.68.09-3.38.34-5.06a2.25,2.25,0,0,0,0-.58,7.3,7.3,0,0,1,.26-2.71,7.21,7.21,0,0,0,.15-1.16,3,3,0,0,1,.12-1,5.43,5.43,0,0,0,.28-1.91,21.56,21.56,0,0,1,.6-4.24c.07-.25.09-.51.15-.77.08-.44-.08-1,.24-1.32a5.44,5.44,0,0,1,1.12-.74c.11-.07.22-.18.34-.19a.91.91,0,0,1,.55,0,14.57,14.57,0,0,1,1.56,1.15,3.16,3.16,0,0,1,.59.76c.2.34.36.69.54,1a14.9,14.9,0,0,1,1.13,2.26,19.65,19.65,0,0,1,.55,2.87c.12.71.23,1.42.29,2.13a26.16,26.16,0,0,0,.75,4.81,6.76,6.76,0,0,1,.15,1.36C393.79,76.66,393.78,77.12,393.71,77.57Zm-22.3,32a6.64,6.64,0,0,0-.67-2.22,2.25,2.25,0,0,1-.21-.92,32.83,32.83,0,0,1,.05-3.29,17.4,17.4,0,0,0-.43-4.43,7.54,7.54,0,0,1-.16-2.5,19.57,19.57,0,0,0-.18-4.26c-.14-1.36-.24-2.71-.26-4.06a20.21,20.21,0,0,0-.27-4.26,2.84,2.84,0,0,1,0-.58c0-1.42-.11-2.85,0-4.27a10,10,0,0,0,0-1.55,2.48,2.48,0,0,0-.21-.94,4.34,4.34,0,0,1-.37-1.73V73.5a5.38,5.38,0,0,0,0-1.33l0-6a12.24,12.24,0,0,1,.44-1.76,3,3,0,0,0,.11-1.72A5.74,5.74,0,0,1,369,60.8a23.65,23.65,0,0,0-.25-2.67c0-.23-.23-.46-.38-.66a.41.41,0,0,0-.34-.1,5,5,0,0,0-1.42,1,1.16,1.16,0,0,0-.41.85c-.06.71-.11,1.42-.18,2.13a6.86,6.86,0,0,0,.11,2.12,15.29,15.29,0,0,1,.19,4.63c-.13,1.41-.21,2.83-.33,4.25-.08,1-.16,2.06-.17,3.1,0,1.23.06,2.46.1,3.68a3.94,3.94,0,0,0,.07.77,12,12,0,0,1,.18,3.1c0,1.87-.14,3.74-.22,5.62h0c0,1,.05,2.07.06,3.1,0,.32,0,.64,0,1,0,.71-.07,1.42-.11,2.13s-.1,1.42-.16,2.12a1.6,1.6,0,0,1-.12.37c-.05.14-.38.26-.49.16s-.24-.15-.29-.25c-.61-1.14-1.22-2.28-1.8-3.44a7.43,7.43,0,0,1-.8-3.37c0-.59-.06-1.18,0-1.75a8.89,8.89,0,0,0-.32-3.08,32.44,32.44,0,0,0-1.26-4.07,7.62,7.62,0,0,1-.33-.91,24.61,24.61,0,0,0-2.17-5.6c-1.52-2.93-2.92-5.92-4.25-8.94-.44-1-.79-2-1.15-3.09a2.06,2.06,0,0,1,.11-1.87,1.46,1.46,0,0,0,.12-.37,2.19,2.19,0,0,0-.19-1.51,1.23,1.23,0,0,0-.76-.56,6.29,6.29,0,0,1-2.07-1.41c-.19-.17-.49-.2-.77.26a8.68,8.68,0,0,0-1.45,3.57,8.17,8.17,0,0,1-.44,1.49c-.18.62-.38,1.23-.55,1.86q-.71,2.72-1.39,5.45c-.68,2.7-1.35,5.4-2,8.1-.4,1.56-.68,3.16-1,4.74A38.5,38.5,0,0,0,341.17,91a2.34,2.34,0,0,1,0,.38c-.23,1.15-.24,2.32-.4,3.47a61.75,61.75,0,0,0-.31,7.57c0,1.37.46,2.67.46,4a5.75,5.75,0,0,0,.19,1.15c0,.13.07.25.09.38a3.56,3.56,0,0,0,.46,1.06,10.43,10.43,0,0,0,2,2.12,1.63,1.63,0,0,0,1.49,0,8.8,8.8,0,0,0,.73-.64,1.82,1.82,0,0,0,.56-1,11.4,11.4,0,0,0,.22-4.43c-.06-.39-.09-.77-.16-1.16a14.06,14.06,0,0,1-.2-2.9c0-1.16.05-2.33,0-3.49a78.84,78.84,0,0,1,.46-10.08,21.67,21.67,0,0,0,.24-2.9,7.19,7.19,0,0,1,.21-1.73c.4-1.84.71-3.69,1-5.55.1-.7.34-1.39.38-2.1a11,11,0,0,1,.42-2.48,10.23,10.23,0,0,0,.39-1.89,9.44,9.44,0,0,1,.39-1.5c.05-.23.27-.38.4-.31s.25.1.31.2a8.79,8.79,0,0,1,.43.87,62.23,62.23,0,0,1,2.88,9c.42,1.7.7,3.42,1.08,5.13s.78,3.67,1.27,5.49a27.34,27.34,0,0,0,2.28,6c.79,1.48,1.67,2.92,2.51,4.38,1,1.8,2,3.61,3.06,5.41a1.87,1.87,0,0,1,.25.92,1.07,1.07,0,0,0,.72,1,.52.52,0,0,1,.33.63,1.17,1.17,0,0,0,.12.93c.13.22.36.43.37.66a2.67,2.67,0,0,0,1.12,1.75c.53.48,1,1,1.59,1.44a5.76,5.76,0,0,0,1,.63,1.17,1.17,0,0,0,1.12,0,2.73,2.73,0,0,1,.51-.26,1.54,1.54,0,0,0,1-1.13.8.8,0,0,0,0-.75A3.15,3.15,0,0,1,371.41,109.57ZM333.94,76l-.15-.12a2.23,2.23,0,0,1-1-2c0-.19,0-.38,0-.58-.07-2.26-.1-4.53-.21-6.79a15.45,15.45,0,0,1,.25-3.66,5.25,5.25,0,0,0,.12-1,21.18,21.18,0,0,0-.31-4.83,4.83,4.83,0,0,1,.2-2.86,6.51,6.51,0,0,0,.33-1.12.71.71,0,0,0-.15-.53,4,4,0,0,0-.75-.61,1.07,1.07,0,0,0-1.1-.1,13.75,13.75,0,0,1-2.47,1.12.82.82,0,0,0-.67,1,1.17,1.17,0,0,1-.3.89,2.53,2.53,0,0,0-.66,1.57,1.34,1.34,0,0,1-.36.67,1.28,1.28,0,0,0-.31.89,3.34,3.34,0,0,1-.22,1.13c-.79,2.54-1.54,5.08-2.32,7.61s-1.57,4.36-2.39,7c-.17.55-.38,1.1-.59,1.64a.81.81,0,0,1-.56.5l-1.89.42a1,1,0,0,0-.59,1.26,1.86,1.86,0,0,0,.19.34c.38.44.78.87,1.16,1.31a1,1,0,0,1,.23.9c-.06.26-.09.51-.16.76-.81,3.07-.62,2.11-1.34,5.19-.22,1-.33,1.56-.53,2.5a15,15,0,0,0-.73,3.27,7.9,7.9,0,0,1-.13,1c-.12.63-.17,1.9-.34,3a.74.74,0,0,0,.24.7,2.27,2.27,0,0,0,.43.39A6.93,6.93,0,0,1,318.42,98a1.17,1.17,0,0,0,1.61.09A8.05,8.05,0,0,1,321.35,97a1.32,1.32,0,0,0,.47-.6,4.7,4.7,0,0,0,.39-1.29c.08-.7.29-.69.49-1.37a14.33,14.33,0,0,0,.32-3,18.91,18.91,0,0,1,1.44-5.33,19.52,19.52,0,0,0,.72-3.7,1,1,0,0,1,1.07-.9,8.53,8.53,0,0,1,2.3.34,1.1,1.1,0,0,1,.79,1,29.58,29.58,0,0,1,.07,6,5.3,5.3,0,0,0,0,1.54,3.94,3.94,0,0,1,0,1,14.16,14.16,0,0,0,.06,2.91c.09,1.16.15,2.32.21,3.49a16.75,16.75,0,0,0,.09,1.74,47.21,47.21,0,0,1,.33,5c0,1,0,2.07-.09,3.1A4.62,4.62,0,0,0,331,110a1.17,1.17,0,0,0,1.38.43.66.66,0,0,0,.5-.53c.14-1,.32-2.05.37-3.08a25,25,0,0,0-.1-4.66,14.83,14.83,0,0,1,.1-4,27.69,27.69,0,0,0,.15-3.86c0-1.75-.26-8.19-.36-9.41a10.57,10.57,0,0,1,.14-2.32,2.32,2.32,0,0,1,.42-1.07c.47-.62.92-1.25,1.38-1.87a1.6,1.6,0,0,0,.27-1.29A3.07,3.07,0,0,0,333.94,76ZM329,70.41c-.07.7.05,1.41,0,2.12s-.1,2.08-.12,2.85a.56.56,0,0,1-.49.51h-2a.34.34,0,0,1-.34-.38,3,3,0,0,1,.1-.43c.44-1.34,1-3.21,1.37-4.57a19.2,19.2,0,0,0,.84-3.75,2.85,2.85,0,0,1,.16-.55.18.18,0,0,1,.11-.08c.05,0,.13.06.15.11a4.34,4.34,0,0,1,.28.91c.05.38,0,.77,0,1.49A10.47,10.47,0,0,1,329,70.41Zm-6.46,37a14.42,14.42,0,0,0-5.25-2.34,29.2,29.2,0,0,0-4.76-1.19,9.25,9.25,0,0,0-4.26.4c-1.16.4-2.18-.08-1.74-1.36a6.08,6.08,0,0,0,.24-3.05,2.33,2.33,0,0,1,.05-1.2,4.35,4.35,0,0,0,.07-2.06,49.88,49.88,0,0,1-.36-5.8c.14-1-.06-4.66,0-5.41a20.37,20.37,0,0,0,.11-3.49c0-1,.06-4.58,0-5.41a3.89,3.89,0,0,1,0-1.18,8.2,8.2,0,0,0,.23-1.64,37,37,0,0,1,.42-5,37.62,37.62,0,0,0,.28-4.5,15.5,15.5,0,0,1,.14-1.92c.1-.77.18-3,.27-3.29.47-1.42.41-3,1-4.35A19.66,19.66,0,0,1,310.33,50a3.26,3.26,0,0,0,.25-1.1A15,15,0,0,1,311,45a15.1,15.1,0,0,0,.47-3.62,1.8,1.8,0,0,0-1.69-1.8c-.38,0-1.17,0-1.17,0a10.69,10.69,0,0,0-1.38.11,15.24,15.24,0,0,0-.52,1.66,43.75,43.75,0,0,1-1.28,4.47c-.52,1.47-1.75,5.14-1.85,5.52-.28,1.13-.54,2.26-.85,3.39-.48,1.81-1,3.6-1.48,5.42-.56,2.26-1.06,4.54-1.53,6.82a45,45,0,0,0-1.25,7.65c0,.26-.1.51-.13.77a45.64,45.64,0,0,0-.55,6.07,25.53,25.53,0,0,1-.31,5.17,33.39,33.39,0,0,0-.46,7.91,8.91,8.91,0,0,0,.14,1.17c.4,2.1.79,4.2,1.3,6.27.34,1.39.89,2.71,1.21,4.09a24.63,24.63,0,0,0,2.22,5.57,6.08,6.08,0,0,0,1.81,2,2.36,2.36,0,0,0,1.27.46c.38,0,.77,0,1.16.06a1.92,1.92,0,0,0,1.95-1.06,3.1,3.1,0,0,1,1.7-1.48,12.33,12.33,0,0,1,5.61-.13,11.35,11.35,0,0,0,2.09-.1c1.1-.15,2.12.35,3.9-.35a3.43,3.43,0,0,0,1.78-2.45A1,1,0,0,0,323,108,2.2,2.2,0,0,0,322.53,107.42ZM63.65,111.49a23.64,23.64,0,0,1-.88-5.35,17.88,17.88,0,0,0-.13-1.94,3.36,3.36,0,0,1,0-1.14,9.55,9.55,0,0,0,.2-3.65,6.83,6.83,0,0,1,0-1.75c.15-1.88-.12-3.75-.12-5.62a5.14,5.14,0,0,0-.18-1c-.18-.89-.42-1.77-.51-2.67a11.61,11.61,0,0,0-.8-3.77c-.14-1-.67-2-.9-3s-.37-2-.55-3.06a38.73,38.73,0,0,1-.87-5.35,12.48,12.48,0,0,1-.29-2.1c-.16-.69-.26-1.4-.38-2.1a5.3,5.3,0,0,1-.14-1,31,31,0,0,0-.31-3.48,10.75,10.75,0,0,0-.67-3c-.26-.73-.51-1.46-.72-2.21S56,57.79,55.68,57s-.47-1.48-.69-2.22a4,4,0,0,1-.45-1.86l-.69-1.6a2.94,2.94,0,0,1-.38-.88,6.78,6.78,0,0,0-.42-1.68A3.89,3.89,0,0,1,53,46.28a2.34,2.34,0,0,0,.1-1.14,8.77,8.77,0,0,0-.52-1.46.62.62,0,0,0-.26-.27c-.5-.33-1-.64-1.61-.29a3.2,3.2,0,0,1-.74.24,7.53,7.53,0,0,0-3.53,2.3.79.79,0,0,0-.24.5,4.8,4.8,0,0,1-.54,2c.16.57-.31,1-.44,1.45a12.62,12.62,0,0,1-.41,1.49c-1.08,2.91-2.19,5.82-3.25,8.73a58.58,58.58,0,0,0-2.37,8.4c-.81,3.93-1.58,7.87-2.38,11.81-.07.38-.17.75-.27,1.13a1.17,1.17,0,0,1-.75.82c-.55.2-1.1.39-1.66.57A4.25,4.25,0,0,0,32,84.19a1,1,0,0,0-.2,1.09.63.63,0,0,1-.12.69c-.39.58-.35,1,.14,1.3a10,10,0,0,0,2.83,1.23A.42.42,0,0,1,35,89c-.24,1.73-.58,3.44-.72,5.19a41.89,41.89,0,0,0-.11,5.82c0,.71.08,1.43.06,2.14,0,1.68-.12,3.36-.2,5a3.11,3.11,0,0,1-.15,1.15,1.92,1.92,0,0,0-.07,1.5,4.39,4.39,0,0,1,.2,1.52,1.31,1.31,0,0,0,.36.88c.37.37.73.74,1.11,1.09a1.28,1.28,0,0,0,.9.3,1.89,1.89,0,0,0,1.89-1.1,4.62,4.62,0,0,1,.47-.84,1.71,1.71,0,0,0-.11-2.3l-.26-.28a1.8,1.8,0,0,1-.53-1.41c0-.58,0-1.16,0-1.75a7.51,7.51,0,0,1-.05-1.16,15.34,15.34,0,0,0,.06-2.71A7.94,7.94,0,0,1,38,100a9.27,9.27,0,0,0,.2-1.73,51.22,51.22,0,0,1,.39-5.81,4.54,4.54,0,0,0,.08-1c-.05-1,.36-2,.35-3.07,0-.15.18-.35.33-.44a2.25,2.25,0,0,1,.89-.34,22.46,22.46,0,0,0,3.26-.47,3.85,3.85,0,0,1,1,0c.72,0,1.43,0,2.14.06A10,10,0,0,0,49.72,87a2.56,2.56,0,0,1,.39,0,.74.74,0,0,1,.84.62c0,.32.1.64.12,1,.13,1.74.22,3.49.37,5.23.18,2.2.32,4.4.64,6.58s.37,4.38.58,6.57a2.89,2.89,0,0,1-.37,1.88,2.65,2.65,0,0,0-.35,1.54c-.15.62.3,1.2.31,1.85a1.5,1.5,0,0,0,.53,1.2,1.17,1.17,0,0,1,.43.84,6.66,6.66,0,0,0,1.14,3.24,18.33,18.33,0,0,1,1.59,2.66.86.86,0,0,0,.38.42,3.5,3.5,0,0,0,3.3.55c.24-.09.51-.11.75-.22a.79.79,0,0,0,.42-.36,5,5,0,0,1,1.58-1.68,1.22,1.22,0,0,0,.44-.83,3.43,3.43,0,0,1,.89-2.3,1.37,1.37,0,0,0,.35-.88,4.81,4.81,0,0,0-.34-3.21A1,1,0,0,1,63.65,111.49ZM49.09,80.78c-.5-.12-1-.24-1.51-.34a3.89,3.89,0,0,0-1.73,0c-.63.15-1.26.29-1.9.4a9.27,9.27,0,0,1-3.28.12.5.5,0,0,1-.37-.56c.33-1.91.67-3.82,1-5.73a2.58,2.58,0,0,0,0-.39,23.75,23.75,0,0,1,.5-3.84,7.65,7.65,0,0,0,.22-1.72A1.66,1.66,0,0,1,42.2,68a42.61,42.61,0,0,0,1.12-4.31c.07-.25.09-.51.17-.75.65-1.76,1.34-3.5,2-5.26.38-1.1.66-2.23,1-3.35a12.07,12.07,0,0,1,.46-1.27c0-.09.19-.16.3-.21a.24.24,0,0,1,.33.13,2.71,2.71,0,0,1,.34.68c.28,1.2.61,2.39.77,3.61.33,2.37.55,4.75.82,7.13,0,.2,0,.39,0,.58q.27,4.67.51,9.31c.06,1.1.06,2.2.13,3.29,0,.71.16,1.42.21,1.77C50.39,80.73,50.05,81,49.09,80.78Zm44.76,19.64a8.36,8.36,0,0,0-3.31-1,1.63,1.63,0,0,0-.58,0,44.35,44.35,0,0,0-5.66,1.35A6.24,6.24,0,0,0,82.1,102a10.4,10.4,0,0,1-2.67,1.58c-.4.18-.73,0-.78-.52s-.06-.9-.1-1.36a4.94,4.94,0,0,0-.12-1A9.55,9.55,0,0,1,78,98.1c0-.93-.35-1.78-.37-2.69a7.37,7.37,0,0,1,0-1.15,2.21,2.21,0,0,0,0-1,10,10,0,0,1-.3-3.08,1.59,1.59,0,0,0,0-.58c-.39-1.24-.3-2.57-.69-3.81a4.54,4.54,0,0,1-.23-2.1,1.68,1.68,0,0,0,0-.39,12.44,12.44,0,0,1,.14-3.85,3.38,3.38,0,0,0,0-.78c0-.71.09-1.42.15-2.12,0-.52.13-1,.12-1.55a23.86,23.86,0,0,1,.31-3.87c.24-1.79.23-3.62.6-5.4a27.55,27.55,0,0,1,.65-4.6c.16-.89.46-1.76.53-2.65.09-1.11.41-2.17.53-3.26a12.37,12.37,0,0,1,.73-3.4,1.17,1.17,0,0,0,0-.74h0A1.42,1.42,0,0,0,78.76,50c-.44,0-1,.69-1.12,1-.27.65-.54,1.3-.78,2a20.92,20.92,0,0,0-1,3.49c-.37,2.14-.88,4.25-1.4,6.36a25.36,25.36,0,0,0-.77,4.73,7.46,7.46,0,0,1-.11.95c-.56,3.28-1,6.58-1.37,9.88C72,79.54,72,80.75,71.89,82s-.19,2.55-.2,3.83A50.25,50.25,0,0,0,72,93.26a54.47,54.47,0,0,1,.3,6.13c0,1.59,0,3.18.16,4.76,0,.35,0,.69.07,1s.08.75.09,1.13a4.3,4.3,0,0,1-.15.92.79.79,0,0,0,0,.34l0,.12a1.22,1.22,0,0,0,.06.56,8.15,8.15,0,0,0,.35,1.31,1.24,1.24,0,0,1,0,.93.57.57,0,0,0,.24.68,4.16,4.16,0,0,1,1.59,1.66,4,4,0,0,0,.44.63,1,1,0,0,0,.65.39,3.56,3.56,0,0,1,.57.08,2.31,2.31,0,0,0,2.19-.45,1.56,1.56,0,0,0,.77-1.47,1.53,1.53,0,0,1,.53-1.21,3.08,3.08,0,0,1,.42-.39,10.71,10.71,0,0,0,1.89-1.66,4.16,4.16,0,0,1,1.78-1.15,7.38,7.38,0,0,1,3.17-.75,2.3,2.3,0,0,0,.57-.11c.64-.12,1.27-.26,1.91-.35a7.81,7.81,0,0,0,2.89-1.06,2.15,2.15,0,0,0,.6-.48,8,8,0,0,0,1.38-2.52,4,4,0,0,0,.11-.53A1.52,1.52,0,0,0,93.85,100.42Zm32.54,7.51a22.25,22.25,0,0,0-4.13-1.65,12.93,12.93,0,0,0-4-.75c-1.55,0-3.11.09-4.66.2a5.73,5.73,0,0,0-1.89.38c-1,.44-2.08.72-3.11,1.11s-2.3.87-3.45,1.3a.54.54,0,0,1-.74-.39,3.32,3.32,0,0,1-.27-1.32c0-.65.06-1.29.07-1.94s0-1,0-1.55a3.38,3.38,0,0,1-.19-2.44,1.88,1.88,0,0,0,0-.78,8.46,8.46,0,0,1,.16-2.7c.24-1.34.49-2.67.69-4a36,36,0,0,0,.77-4,1.22,1.22,0,0,1,.12-.57,9.3,9.3,0,0,0,.79-2.58c.23-.87.52-1.73.8-2.59a1,1,0,0,1,1.12-.54c.37.12.75.23,1.11.37a11.37,11.37,0,0,0,3.22.64,6,6,0,0,0,3.31-.92.84.84,0,0,0,.32-1c-.12-.29-.37-.58-.36-.88a2.14,2.14,0,0,0-.79-1.5,5,5,0,0,0-2.49-1.43,9,9,0,0,0-2.26-.54,3.63,3.63,0,0,1-1.1-.36.57.57,0,0,1-.22-.49c.33-2,.67-4.09,1.11-6.11a8.27,8.27,0,0,1,.92-2.75,5.06,5.06,0,0,0,.33-.9,46.26,46.26,0,0,0,1.76-7.35c.16-.82.3-1.65.51-2.47a4.58,4.58,0,0,1,.58-1.43,13.77,13.77,0,0,0,1.36-2.78,2.14,2.14,0,0,1,1-1.18,1.82,1.82,0,0,0,.9-1.43,9.88,9.88,0,0,0,0-1.54,2.28,2.28,0,0,0-1.13-1.92,1.36,1.36,0,0,0-.52-.24,8.67,8.67,0,0,0-3.48.07,14.21,14.21,0,0,0-4.72,2.23c-1,.75-2.06,1.57-3.14,2.29a27.54,27.54,0,0,0-3.29,2.71c-.47.44-.95.87-1.44,1.3S98.63,56.56,98,57.15a2.94,2.94,0,0,0-1.12,2.37,5.85,5.85,0,0,1-.15,1.15,1.45,1.45,0,0,0,.3,1.09,2.33,2.33,0,0,0,1.4,1c.49.09.79-.36,1.17-.59a5.5,5.5,0,0,0,1.7-1.83,10.7,10.7,0,0,0,.76-1.36,3.83,3.83,0,0,1,1.22-1.48,27.59,27.59,0,0,1,4-3,3.73,3.73,0,0,0,.46-.35l1.44-1c.23-.15.6,0,.61.24a4.75,4.75,0,0,1-.15,1.72c-.3,1-.58,2-.91,3q-1,3-1.73,6.17c-.08.38-.13.76-.23,1.14a29.94,29.94,0,0,1-.86,3c-.56,1.46-1,2.94-1.44,4.43s-1,2.81-1.29,4.26a2.65,2.65,0,0,1-.12.37.65.65,0,0,1-.57.45L99.89,78c-.57,0-1.29,0-2,0a2.69,2.69,0,0,0-.92.22c-.9.37-1,.59-.79,1.46.13.5.32,1,.5,1.47a1.68,1.68,0,0,0,1.31,1,3.21,3.21,0,0,0,1.54,0,4.83,4.83,0,0,1,1.93,0,.49.49,0,0,1,.42.54c-.12.57-.27,1.13-.38,1.7a16,16,0,0,0-.56,3.84,4.61,4.61,0,0,1-.22,1.13c-.21.88-.45,1.76-.61,2.64s-.24,1.93-.42,2.89a33.79,33.79,0,0,0-.39,5.22c-.06,2.08-.14,4.15-.19,6.22a15.44,15.44,0,0,1-.33,2.7c-.18.88-.32,1.78-.44,2.68a5.16,5.16,0,0,0,.53,3,5.79,5.79,0,0,0,4.18,3.17,1.47,1.47,0,0,0,1,0,13.88,13.88,0,0,1,4.71-1.08,5.94,5.94,0,0,0,2.38-.76,10.23,10.23,0,0,1,1-.59,7.41,7.41,0,0,1,2-.72c.83-.1,1.66-.27,2.49-.3a13.73,13.73,0,0,0,2.64-.63l.19,0a3.07,3.07,0,0,0,2-.63A1.35,1.35,0,0,1,122,113a6.12,6.12,0,0,0,3.74-1.86,2.89,2.89,0,0,0,.89-1.46c0-.25.14-.5.21-.75A.73.73,0,0,0,126.39,107.93ZM25.75,101.47a7.63,7.63,0,0,1-.39-1.7c-.22-1.08-.48-2.15-.77-3.21-.36-1.31-.77-2.6-1.14-3.91a23.18,23.18,0,0,0-1.1-3.91,3.39,3.39,0,0,1-.09-.57,18.71,18.71,0,0,0-1.66-4.34c-.58-1-1.14-2-1.7-3.06a28.78,28.78,0,0,1-2.56-6.27c-.4-1.43-.85-2.85-1.22-4.29-.55-2.13-1.09-4.27-1.56-6.42-.26-1.13-.38-2.29-.54-3.45-.09-.64-.13-1.29-.24-1.92-.28-1.67-.1-3.36-.23-5,.24-1.48.34-3,.48-4.44a7.13,7.13,0,0,1,.26-1.13,13.1,13.1,0,0,0,.53-2.47,2.74,2.74,0,0,1,.11-.57,30.23,30.23,0,0,1,2.49-5.46c.16-.28.38-.52.57-.79a1.07,1.07,0,0,1,.82-.44,1.74,1.74,0,0,0,.56-.11c.11,0,.18-.18.25-.29a.94.94,0,0,0-.3-.84c-.24-.07-.51-.1-.75-.19a1.58,1.58,0,0,0-1.31.13c-.23.11-.45.25-.68.36l-1.9,1-1.59,2c-.12.15-.2.34-.31.5a23.71,23.71,0,0,1-3.17,3.9,7,7,0,0,0-1,1.2,12.84,12.84,0,0,1-1.49,2,2.42,2.42,0,0,0-.4.66,40.2,40.2,0,0,1-2.23,4.07A2.41,2.41,0,0,0,3,53.68a3.59,3.59,0,0,1-.44,1.47A11.56,11.56,0,0,0,2,56.4a2.5,2.5,0,0,0-.2.93c0,.51.23,1,.21,1.52a12.21,12.21,0,0,0-.29,1.51c0,.26,0,.52,0,.77a2.61,2.61,0,0,1,0,.39,3.6,3.6,0,0,0,0,2.27.85.85,0,0,1,0,.39A6.51,6.51,0,0,0,2,66.09a15.17,15.17,0,0,1,.44,3.85,22,22,0,0,0,.69,5.17c.18.94.58,1.85.85,2.78a10.29,10.29,0,0,1,.41,2.48,6.92,6.92,0,0,0,.46,2.84A1.74,1.74,0,0,1,5,84a3.43,3.43,0,0,0,.54,2.22,2.12,2.12,0,0,1,.19.74,7.3,7.3,0,0,0,1,2.52,14.16,14.16,0,0,1,1,1.87,1.76,1.76,0,0,0,.75.86,1,1,0,0,1,.59.74,2,2,0,0,0,1.22,1.6,3.23,3.23,0,0,1,1.06,1.11,4.92,4.92,0,0,0,1,1.17,4.5,4.5,0,0,1,.94,1,4.86,4.86,0,0,0,.68.68A2,2,0,0,0,15.9,99a1.21,1.21,0,0,1,.19,0,.73.73,0,0,1,.7.25,7.2,7.2,0,0,0,.78.86,3.58,3.58,0,0,1,1.2,1.72,42.84,42.84,0,0,1,1.36,4.25,3.4,3.4,0,0,0,.59,1.43,5.13,5.13,0,0,1,1,2.5,18.36,18.36,0,0,1,.4,1.9,11,11,0,0,0,.27,1.9,3.63,3.63,0,0,1,0,1.54,14.6,14.6,0,0,1-.82,2.58,20.73,20.73,0,0,1-2.64,4.28,5.23,5.23,0,0,1-1.55,1.45,6.65,6.65,0,0,0-2,1.84,7.26,7.26,0,0,1-4.22,2.57c-.63.12-1.26.3-1.9.38a1.59,1.59,0,0,0-1.3,1,12.19,12.19,0,0,0-.47,1.87c0,.09.08.25.16.34a1.45,1.45,0,0,0,1.15.62c.33,0,.65,0,1.4-.06.74.24,1.72-.3,2.7-.79l.19-.07a3,3,0,0,0,1.12-.74,14.31,14.31,0,0,1,1.15-1.05,18.13,18.13,0,0,0,2.07-2c.85-1,1.7-2,2.48-3A25.47,25.47,0,0,0,22.3,121c.49-.92,1-1.84,1.46-2.74a20.41,20.41,0,0,0,2.35-7,33.44,33.44,0,0,0-.31-9.68A.53.53,0,0,0,25.75,101.47Zm181.51,15.32a4.16,4.16,0,0,1-.95-1,6.38,6.38,0,0,0-.73-.9,9,9,0,0,1-1.84-2.71c-.68-1.34-1-2.82-1.51-4.2a5,5,0,0,1-.46-1.87,3.42,3.42,0,0,0-.23-.93c-.67-2.16-1.33-4.33-1.82-6.54a16.3,16.3,0,0,1-.37-2.29,8.76,8.76,0,0,0-.18-1.35c-.17-.75-.37-1.5-.57-2.25a26.23,26.23,0,0,0-.88-2.77,31.25,31.25,0,0,1-1.41-4.43,21.49,21.49,0,0,0-1.69-5.35,1,1,0,0,1,.13-1.11,35.33,35.33,0,0,1,2.27-2.9c.7-.76,1.37-1.55,2.09-2.29a8.22,8.22,0,0,0,1.45-2.26c.25-.53.51-1,.72-1.59s.31-1,.47-1.48.3-1,.44-1.48a4.42,4.42,0,0,0,.22-.94c.06-.71.08-1.42.1-2.13,0-.91-.24-1.8-.27-2.69A14,14,0,0,0,201,56.5a6.66,6.66,0,0,0-1.51-2.24,1.68,1.68,0,0,0-.63-.44,4.65,4.65,0,0,0-2.66-.28,2.88,2.88,0,0,1-.77.12,2,2,0,0,0-1.59,1c-.87,1.09-1.12,2.46-1.72,3.67l-.42,3.08c-.08.57-.13,1.16-.26,1.73-.47,2.21-.59,4.49-1.25,6.67a1.23,1.23,0,0,0,0,.19c-.18,1.09-.36,2.18-.53,3.26s-.39,2.3-.56,3.45Q188.5,80.31,188,84c-.25,1.73-.47,3.46-.74,5.19-.36,2.3-.87,4.57-1.33,6.86-.34,1.71-.54,3.45-.85,5.17a29.5,29.5,0,0,0-.38,3.86,19.26,19.26,0,0,1-.29,3.86,2.35,2.35,0,0,0,.31,1.67,5.47,5.47,0,0,1,.8,2.75,2.6,2.6,0,0,0,.2.94c.39,1,.79,2,1.21,3.07a8.93,8.93,0,0,0,1.08,2c.37.48,1,.6,1.42,1l.15.12a1.5,1.5,0,0,0,1.27.27,5,5,0,0,1,1.15.08,1.22,1.22,0,0,0,1.33-1.33,7.68,7.68,0,0,0-.12-1.74c-.23-.88-.28-1.79-.49-2.67a25.07,25.07,0,0,1-.59-4.22,20.28,20.28,0,0,1-.16-4.93,30.34,30.34,0,0,1,.44-4.73,3.69,3.69,0,0,0,0-.58,13.2,13.2,0,0,1,.18-1.54,10.15,10.15,0,0,0,.16-1.74c0-.77.09-1.54.15-2.31,0,0,.09-.06.13,0s.16,0,.17,0a7.53,7.53,0,0,1,.4,1.09c.63,3,1.29,6.08,2,9.09a39.49,39.49,0,0,0,2.51,7.34,20.47,20.47,0,0,0,3.91,5.75,21.52,21.52,0,0,1,1.85,1.72,1.77,1.77,0,0,0,.46.34c.44.27.89.54,1.34.79a1,1,0,0,0,.75.09c.25-.06.49-.16.75-.2a1.43,1.43,0,0,0,1.11-1c.59-1.54.62-1.23-.34-2.63A2.59,2.59,0,0,0,207.26,116.79Zm-13-44.72a.16.16,0,0,1-.12-.09,1,1,0,0,1,0-.38,9,9,0,0,0,.31-2.69,6.25,6.25,0,0,1,.33-2.28A15.52,15.52,0,0,1,196,63a3,3,0,0,0,.34-1.3,4.87,4.87,0,0,1,.19-1.34,11.63,11.63,0,0,0,.73-2.78c0-.14.23-.28.39-.35s.24.08.32.17a1.54,1.54,0,0,1,.33.47,9.74,9.74,0,0,1,.64,1.62c.18.81.26,1.65.36,2.33-.25,2.23-.57,4.25-1.87,6-.88,1.19-1.64,2.48-2.48,3.71a3.86,3.86,0,0,1-.53.54A.3.3,0,0,1,194.24,72.07ZM291,114c-.3-.13-.57-.32-.87-.44a4.14,4.14,0,0,1-1.55-1.11,16.67,16.67,0,0,0-1.86-1.7,13.49,13.49,0,0,1-3.29-3.53,4.28,4.28,0,0,0-.63-.73,4,4,0,0,1-.51-.58,47.94,47.94,0,0,1-2.9-4.81c-.35-.77-.7-1.53-1.08-2.28A17,17,0,0,1,276.87,95a9.23,9.23,0,0,0-.24-.94c-.28-.8-.61-1.57-.85-2.38a16.74,16.74,0,0,0-1.08-2.26c-.44-.93-.94-1.84-1.46-2.73a11.24,11.24,0,0,1-1-1.89,8.8,8.8,0,0,0-.84-1.53c-.23-.39-.54-.74-.74-1.14A27.43,27.43,0,0,0,269,79.47a3.59,3.59,0,0,1-.44-.63,21.2,21.2,0,0,0-1.24-2.42.45.45,0,0,1,.15-.5c.51-.4,1.19-.47,1.68-.94a2.93,2.93,0,0,1,1-.59,1.67,1.67,0,0,0,.92-1c.44-1.07.82-2.17,1.36-3.21a1.8,1.8,0,0,0,.16-.56,20,20,0,0,0,.4-2.87,11.83,11.83,0,0,1,.63-3.42,9.66,9.66,0,0,0,.4-3,4.94,4.94,0,0,0-.81-2.94c-.11-.14-.06-.39-.15-.55a1.63,1.63,0,0,0-.46-.6,9.64,9.64,0,0,0-4.12-1.62,11.14,11.14,0,0,1-2.29-.36,2.07,2.07,0,0,0-1.68.27,3.72,3.72,0,0,0-.91.71c-.41.41-.48.52-.22,1a1.42,1.42,0,0,1,.08,1.46,27.74,27.74,0,0,0-1.89,5.69c-.2.82-.37,1.64-.5,2.47s-.21,1.93-.32,2.89c-.16,1.42-.27,2.84-.48,4.25-.41,2.81-1,5.61-1.29,8.44a25.6,25.6,0,0,0-.27,4.63,15.86,15.86,0,0,1-.1,1.94,3.92,3.92,0,0,0-.05,1c.19,1,.13,1.94.24,2.9s.28,2,.43,3.07.34,2.17.53,3.26c.29,1.59.64,3.17.89,4.77.23,1.4.42,2.82.53,4.23.15,1.94.22,3.88.33,5.82a2.43,2.43,0,0,0,.19.94,13.23,13.23,0,0,1,1,2.92.84.84,0,0,0,.35.44c.37.26.82.37,1.12.75a2.79,2.79,0,0,0,.61.46,1.45,1.45,0,0,0,1.65.07,3.21,3.21,0,0,0,.8-.54,1.05,1.05,0,0,0,.3-.68,9.28,9.28,0,0,0-.4-2.88,16.42,16.42,0,0,1-.77-3c-.2-1-.49-2-.77-3a9.38,9.38,0,0,1-.54-3.61,7.93,7.93,0,0,0-.23-1.92c-.09-.64-.23-1.27-.3-1.92q-.35-3.18-.64-6.37c-.09-1-.15-2.06-.19-3.1s0-2.07,0-3.1.3-2.2-.06-3.28a.31.31,0,0,1,0-.19,5.6,5.6,0,0,0,0-2.51c0-.78.09-1.55.16-2.32a2.76,2.76,0,0,1,.19-.75.45.45,0,0,1,.28-.24.43.43,0,0,1,.33.15,15.4,15.4,0,0,1,1.52,3.36c.43,1.21.83,2.44,1.2,3.68q1,3.45,2.12,6.87A41.47,41.47,0,0,0,271.88,99a78.1,78.1,0,0,0,4.72,7.8,45.54,45.54,0,0,0,5.32,6.43c1.39,1.44,2.81,2.86,4.2,4.31a6.75,6.75,0,0,0,1.51,1.21,2.22,2.22,0,0,0,1.49.29c.77-.14,1.53-.27,2.29-.43a1.31,1.31,0,0,0,.5-.28,2.51,2.51,0,0,0,.53-2.86A3.69,3.69,0,0,0,291,114ZM265.86,70.28c-.11.11-.49.15-.54.06a.91.91,0,0,1-.14-.34,1.42,1.42,0,0,1,0-.58,10.11,10.11,0,0,0,.22-2.12,1.67,1.67,0,0,1,0-.39,18.86,18.86,0,0,0,.44-4.62,5.77,5.77,0,0,1,.46-1.87.63.63,0,0,1,.6-.43c.51,0,1,.09,1.54.14a.83.83,0,0,0,.93-.51c.2-.42.58-.45,1-.44a1.18,1.18,0,0,1,1,.47,3.21,3.21,0,0,1,.66,2.18c0,.32-.07.65-.12,1a34,34,0,0,1-1,4,3.93,3.93,0,0,1-.31.7,1.33,1.33,0,0,1-.65.69,6,6,0,0,0-1.38.71,1.61,1.61,0,0,1-1.12.16,1,1,0,0,0-.83.41C266.4,69.72,266.13,70,265.86,70.28Zm-22.43-4.54c.26-1.22.45-2.46.79-3.65a26,26,0,0,0,.68-2.87,23.27,23.27,0,0,1,1.12-4c.41-1.16.82-1.34,1.92-1.09.82.18,1.62.46,2.44.63a3.28,3.28,0,0,0,2.55-.68,1,1,0,0,0,.25-.29.74.74,0,0,0,.1-.74,1.85,1.85,0,0,0-.25-.53,3,3,0,0,0-1.79-1.09c-.77-.13-1.54-.2-2.31-.3L247.58,51c-.67-.51-1.53-.41-2.28-.66,0,0-.57-.52-.76-.33a1.39,1.39,0,0,0-.37,1c0,.34-2.43,7.79-2.46,8.19s-1.07,5.06-1.2,5.4a58.86,58.86,0,0,0-1.63,6c0,.08,0,.17,0,.26a13.17,13.17,0,0,1-1.24,1.92.69.69,0,0,0-.08.74,3.78,3.78,0,0,0,.3.51,1.33,1.33,0,0,1,.22,1.12,7.2,7.2,0,0,0-.16,1.68c-.26,1.75-.51,3.52-.54,4.06A59.62,59.62,0,0,0,237,91c0,.06,0,.12,0,.19.4,3.85-.4,9.86.46,12.56a.79.79,0,0,1-.12.15,1.11,1.11,0,0,0-.16,1.42c.24.61.42,1.24.66,1.85a3.51,3.51,0,0,1,.34,1.51,2.7,2.7,0,0,0,.46,1.49l.79,1.35a3.8,3.8,0,0,0,1.48,1.52,12,12,0,0,1,1.06.85.73.73,0,0,0,.73.16c1.09-.39,2.23-.71,2.73-2a1.53,1.53,0,0,1,.38-.43,3.65,3.65,0,0,1,1.54-.79A5.52,5.52,0,0,0,250.7,109l.87-.78c.38-.36.77-.7,1.11-1.09a2,2,0,0,0,.5-1.64c-.07-.46-.18-.92-.76-1a4,4,0,0,1-.56-.18c-1-.33-2-.6-2.93-1s-2.2-.12-3.25-.47a1.32,1.32,0,0,0-.76.06c-.75.21-1.5.4-2.25.58a.41.41,0,0,1-.34-.13,4.92,4.92,0,0,1-.66-2.22c0-.84-.22-1.69-.26-2.54a30.91,30.91,0,0,0-.26-3.33,6.38,6.38,0,0,1,0-1c0-.79,0-1.58-.14-2.36a41.52,41.52,0,0,1-.07-4.32,22.91,22.91,0,0,0,.09-2.75c-.14-1,.21-1.95.09-2.94a14.15,14.15,0,0,1,.41-4.1.59.59,0,0,1,.73-.46,5.74,5.74,0,0,1,.91.31.89.89,0,0,0,1.08-.11,3.68,3.68,0,0,1,2.44-1,1.38,1.38,0,0,0,.74-.19,1.31,1.31,0,0,1,1.25-.28A.48.48,0,0,0,249,76c.35-.29.69-.59,1-.91a1.22,1.22,0,0,0,.29-1.28,8.2,8.2,0,0,0-1.09-2.07,1.62,1.62,0,0,0-1.1-.73c-1.33-.24-2.66-.5-4-.76a6.29,6.29,0,0,1-.74-.22.68.68,0,0,1-.45-.58,7.65,7.65,0,0,1,.3-2.73A6,6,0,0,0,243.43,65.74ZM232.3,114.51a1.34,1.34,0,0,0-.3-.32,6.69,6.69,0,0,1-1-1c-.25-.33-.46-.69-.69-1l-.07-.11c-.47-.85-1.21-2.14-1.53-2.73-.08-.18-.16-.36-.24-.57a38.55,38.55,0,0,1-1-7.21c0-1-.1-1.94-.09-2.91a8.93,8.93,0,0,1,.22-1.54c.17-.76.38-1.51.55-2.26a12.67,12.67,0,0,1,.45-2.08,2.3,2.3,0,0,0-.16-1.7.82.82,0,0,1,.4-1c.16-.1.35-.16.52-.25,1.42-1,.69-2.94.59-3.32-.22-.83-1.13-1.86-1.93-1.87-1.43,0-3.84-.59-5.74,2.12a.71.71,0,0,0-.14.54,3.59,3.59,0,0,1-.33,2.81.89.89,0,0,0,.33,1,5.22,5.22,0,0,0,.48.34q.4.25.84.48a.83.83,0,0,1,.44.8c0,.58-1,3-1.08,3.61a23.38,23.38,0,0,0-.31,2.5c0,.47-.17,2.19-.88,1.15a11.5,11.5,0,0,1-1.43-3c-1.11-2.79-1.89-9.68-2-10.26-.16-1.35-.14-2.71-.27-4a21.54,21.54,0,0,1-.07-3.11,32,32,0,0,1,2.52-12.2,8.14,8.14,0,0,0,.57-1.44c.19-.68.57-1.31.74-2a12.74,12.74,0,0,1,.62-1.63,2.72,2.72,0,0,1,.95-1.19,8.92,8.92,0,0,0,1.93-1.9c.39-.53,2.71-4.53,3-6.33a3.56,3.56,0,0,0,.16-1.93c-1.08-1.57-3.23-.13-3.55.17-1.27,1.21-2.91,1.93-4.13,3.22a18.29,18.29,0,0,0-2.09,2.79c-.47.7-.91,1.41-1.41,2.09a16.15,16.15,0,0,0-1.38,2.34c-.61,1.21-1.16,2.46-1.72,3.7-.37.82-.73,1.65-1.15,2.45a32.09,32.09,0,0,0-2,4.84,39,39,0,0,0-1.74,7.75c-.11,1-.32,2.05-.38,3.09a19.86,19.86,0,0,0-.06,3.34c0,.6,0,1.06,0,1.51a4.38,4.38,0,0,0,.28,2.09,3.48,3.48,0,0,1,.23,1.53,7.89,7.89,0,0,0,.18,2.32,5.54,5.54,0,0,1,.12,1.15,5.91,5.91,0,0,0,.29,1.72,3.43,3.43,0,0,1,.2,1,13.57,13.57,0,0,0,1.67,5.33c.71,1.45,1.46,2.88,2.08,4.38.34.84,2.12,3.39,2.46,3.94a20.45,20.45,0,0,0,3.42,4c.84.82,1.89,1.34,2.79,2.08a9.72,9.72,0,0,0,4.61.83,6.54,6.54,0,0,0,1,0c.48,0,.76,0,1.21,0a.57.57,0,0,0,.18,0h0a2.58,2.58,0,0,0,2.75-1.78,9.09,9.09,0,0,0,.19-1h0l0-.15a1.33,1.33,0,0,0,.07-.43,1.21,1.21,0,0,0,0-.27,1,1,0,0,0-.18-.34ZM178.08,57a5.84,5.84,0,0,0-.27-.93,1.27,1.27,0,0,0-.32-.47,6.27,6.27,0,0,0-.81-.53,2,2,0,0,0-1.87-.13,8.49,8.49,0,0,0-1.18.66,10.9,10.9,0,0,0-2,1.86,7.76,7.76,0,0,1-.78.84,1.72,1.72,0,0,0-.57,1.57,30.45,30.45,0,0,1,.4,6.24,14.42,14.42,0,0,0,0,2.71c.1,1.3.05,2.59,0,3.89,0,.58,0,1.16,0,1.74,0,2,.07,3.89,0,5.83a6.74,6.74,0,0,1,0,.77v0c-.14,2.6-.63,10.82-1,12.11-.49,1.54-1.73-1-2.31-1.78s.1-2.21,0-4.32a15.78,15.78,0,0,0-1.11-4.51,23.49,23.49,0,0,1,0-2.88c.09-.87,0-2,0-2.79s-.19-3.36-1.06-4.41,0-2.69,0-3.94a8.4,8.4,0,0,0-.55-3.17c-.56-2.11-.09-8.64-.1-11.32,0-.25,0-.5,0-.75,0-.52-.42-.77-.83-1-.06,0-.26.09-.29.18-.22.67-.41,1.35-.61,2a30.43,30.43,0,0,0-1,3.76c-.35,2-.72,4.08-1.06,6.12-.16,1-.28,1.93-.38,2.89q-.37,3.68-.72,7.35c0,.58-.11,1.16-.12,1.74,0,2.72,0,5.44,0,8.16,0,0,.09,3.36.08,5,0,2,.1,4,.23,6s.5,4.11.61,6.18a12.79,12.79,0,0,0,.31,1.92,24.17,24.17,0,0,0,1,3.94c.57,1.45,1.2,2.87,1.83,4.29a12.44,12.44,0,0,0,1.73,2.8,5.79,5.79,0,0,1,.91,1.48,1.14,1.14,0,0,0,.52.54,5.94,5.94,0,0,1,1.15.71,3,3,0,0,0,1.61.61,8,8,0,0,0,2.13,0,.85.85,0,0,0,.76-.5c.17-.41.57-.7.62-1.19a24.87,24.87,0,0,0,.3-2.69,6.92,6.92,0,0,1,.33-2.09,8.74,8.74,0,0,0,.42-3.25,5.31,5.31,0,0,1,.18-1.72,4.57,4.57,0,0,0,.2-2.11,32.8,32.8,0,0,0,.17-3.29,5.94,5.94,0,0,1,.32-1.71,6.5,6.5,0,0,0,.29-2.87,19.06,19.06,0,0,1,.45-5.59c.48-2.61,1.15-5.19,1.38-7.84,0-.26.08-.51.12-.77.07-.57.15-1.15.21-1.73s.12-1.29.22-1.93a32.11,32.11,0,0,0,.58-5.79,10.29,10.29,0,0,1,.19-1.73c.18-1.28.4-2.56.53-3.85a30.1,30.1,0,0,0,.09-3.68A33.79,33.79,0,0,0,178.08,57ZM150.31,92.08a8.5,8.5,0,0,0-.37-2.29,4.57,4.57,0,0,1-.26-1.91c.19-2,.4-4,.59-6a3.94,3.94,0,0,0,0-1c-.1-.77-.25-1.53-.38-2.29a3.73,3.73,0,0,0-.77-2,2.58,2.58,0,0,1-.5-1,9.1,9.1,0,0,0-.51-1.25,4.17,4.17,0,0,1-.57-1.63,9.63,9.63,0,0,0-2.13-3.8,8.41,8.41,0,0,0-3.73-2,20,20,0,0,1-3-1,.35.35,0,0,1-.08-.33c.17-.45.82-.59,1.21-.83A2.7,2.7,0,0,0,141,63.38a5.66,5.66,0,0,0,.38-1.3,4.67,4.67,0,0,1,.61-1.82,26.37,26.37,0,0,1,1.56-2.68,5.07,5.07,0,0,0,.95-2.7c0-.58.35-1.92-.12-2.51a4.87,4.87,0,0,0-2.55-1.69,11.79,11.79,0,0,0-4.09-.81c-.51.06-1,.09-1.54.18-.73.13-.78.24-.66,1a2,2,0,0,1,0,.77,8.84,8.84,0,0,1-.51,1.66,23,23,0,0,0-1.14,3.71c-.19.82-.4,1.63-.63,2.44A76.49,76.49,0,0,0,131,70.84c-.18,1.48-.39,3-.68,4.41s-.45,2.68-.61,4-.25,2.7-.37,4a12.77,12.77,0,0,0-.2,1.93c0,1-.07,2.07-.12,3.1a37.37,37.37,0,0,0,0,4.85,22.56,22.56,0,0,1,0,4.27,20.68,20.68,0,0,0,.16,4.45,13.22,13.22,0,0,0,2.08,5.79,1.41,1.41,0,0,0,1.41.83c.49-.06.79.39,1.15.65a.93.93,0,0,1,.38,1,7.22,7.22,0,0,1-1,2.69.59.59,0,0,0,0,.55c.66,1.16,2.45,1.55,2.89,1.66a4,4,0,0,0,1.72-.12,15.24,15.24,0,0,0,1.65-.56,4.11,4.11,0,0,1,1.68-.41,1.8,1.8,0,0,0,1.06-.44c1.31-1,3.63-1.66,4.46-3.09a28,28,0,0,0,2-3.73,33.42,33.42,0,0,0,1-4.34c0-.39.07-.78.08-1.17a8.67,8.67,0,0,1,.39-2.47,17.2,17.2,0,0,0,.55-2.66,6.11,6.11,0,0,0-.05-2.13A11.36,11.36,0,0,1,150.31,92.08ZM138,53.6a3.45,3.45,0,0,1,.27-.92c.24-.66.95-.75,1.65-.58a6,6,0,0,1,.92.27.75.75,0,0,1,.46.58,5.24,5.24,0,0,1-.07,2.49,22,22,0,0,1-2.77,5.66.67.67,0,0,1-.28.25.56.56,0,0,1-.34,0,.19.19,0,0,1-.14-.12,1.83,1.83,0,0,1-.13-.55c0-.65,0-1.29,0-2.29C137.43,57.13,137.93,55.2,138,53.6Zm6.2,36.09a28.15,28.15,0,0,1-.35,3.66c-.26,1.79-.79,4.78-.9,5.44s-1.42,2.13-1.78-.58a69,69,0,0,0-1.77-6.93,14.1,14.1,0,0,1-.46-2.66c-.09-1.15-.25-2.3-.34-3.46-.06-.7-.33-2.61-.32-2.86a18.9,18.9,0,0,0-.6-5,6.09,6.09,0,0,1-.08-1.35c0-1,.06-2.06,0-3.09a8.12,8.12,0,0,0-.24-1.91,4.48,4.48,0,0,1-.25-1.83c0-.3.25-.44.45-.59a.58.58,0,0,1,.18-.08,3.54,3.54,0,0,1,3.77,1.33,15.32,15.32,0,0,1,1.82,4.65,19,19,0,0,1,.43,5.58c0,.45,0,.9,0,1.35a12.3,12.3,0,0,0,.19,3.09,12.21,12.21,0,0,1,.23,3.08C144.23,88.27,144.24,89,144.24,89.69Z" transform="translate(-1.62 -1.4)"/><path class="cls-2" d="M295.71,18.32c.58.92.85,2.45,2,3,1.83,1.11,2.3,3.67,1.86,6,0,0-1.15,7-8.18,14.67l-1,1.09a4.41,4.41,0,0,1-3.21,1.29c-1.33.07-4.7-1.94-6.25-1.5-2.59.53-4.54-.24-5.07-3.43a21.14,21.14,0,0,0-1.7-5.57c-.3-.73-2.43-2.14-2.54-4,0,0-1.64-8,4-9.44,3.37-.89,8.27-1.21,9.71-1.6s2.11-2,3.89-2.59C291.24,15.54,294.66,16.7,295.71,18.32Z" transform="translate(-1.62 -1.4)"/><path class="cls-3" d="M147.09,8.83c.32,2.87.54,5.93,1,8.94A12.79,12.79,0,0,0,149.69,21a9.17,9.17,0,0,0,.92,2.54,6.2,6.2,0,0,0,3.22,1.95c1.25.31,2.51-1.12,3.24-.57a7.39,7.39,0,0,0,7.68,1.6,46.86,46.86,0,0,0,5.56-2.66,3.13,3.13,0,0,0,1.59-2.54,2.77,2.77,0,0,0-1.05-2.24,47.52,47.52,0,0,0-5.44-2.65,4.08,4.08,0,0,0-4,.21c-1.06.85-2,2.84-3.74,4.5s-2.62.29-3-1.19a6.23,6.23,0,0,1,.43-3.48c.54-1,4.45-6.08,6.1-8.18s-1.71-7.58-4.58-6.82S147.13,3.2,147.09,8.83Z" transform="translate(-1.62 -1.4)"/><path class="cls-3" d="M147.74,31.26c-2,2-1.34,9.33.14,10.87a2.93,2.93,0,0,0,2.91.08,7.71,7.71,0,0,0,3.67-3.74c.9-3.14,1.08-5.62-.57-7.34C151.79,29.17,149.7,29.36,147.74,31.26Z" transform="translate(-1.62 -1.4)"/><path class="cls-3" d="M141.69,26.74c-.57-2.44-3.9-4.16-6.41-4-1.34.1-4.11.24-4.62,2.6s2.22,6.68,5.49,6.15S142.25,29.18,141.69,26.74Z" transform="translate(-1.62 -1.4)"/><path class="cls-4" d="M94.64,33.83c1.07-1.56,1.89-3.9.87-6a8,8,0,0,0-2-2.9,30.17,30.17,0,0,0-4.58-3.42c-.66-.42-1.4-.88-2.21-1.36A30.24,30.24,0,0,0,83,18.38C75.35,16,66.44,19.56,66,19.85A3,3,0,0,0,64.77,21c-.86,1.74.27,3.1,1,4a76,76,0,0,0,9.86,7.77,22,22,0,0,0,7.42,3,24.21,24.21,0,0,0,6.38.9A7.78,7.78,0,0,0,94.64,33.83Z" transform="translate(-1.62 -1.4)"/><path class="cls-5" d="M187.66,142.45c2.79,3.05,8.77,2.73,11,2.58a6.88,6.88,0,0,0,3.07-.8,2.47,2.47,0,0,1,2-.14c1.3.51,2.55,1.15,3.87,1.61,2.78,1,6,4.49,8.23,5.54a2.55,2.55,0,0,0,3.93-2.2,8.3,8.3,0,0,0-1.06-5.29,31.24,31.24,0,0,0-5-6.7,21.36,21.36,0,0,0-8.38-4.66,14.73,14.73,0,0,0-3.2-.35,20.34,20.34,0,0,0-11.28,2c-.76.39-3.56,1.38-3.81,4.19C186.83,139.86,186.54,140.94,187.66,142.45Z" transform="translate(-1.62 -1.4)"/></svg>